# xmcd CD database file
#
# Track frame offsets:
#	150
#	18370
#	59243
#	332550
#
# Disc length: 4440 seconds
#
# Revision: 1
# Processed by: cddbd v1.5.1PL0 Copyright (c) Steve Scherf et al.
# Submitted via: CDex 1.51
#
DISCID=33115604
DTITLE=奥田民生 - 何と言う
DYEAR=2004
DGENRE=JPop
TTITLE0=何と言う
TTITLE1=人ばっか （OT10メドレー・LIVEヴァージョン）
TTITLE2=FUCK CCCD DATA 01
TTITLE3=FUCK CCCD DATA 02
EXTD=YEAR: 2004
EXTT0=
EXTT1=
EXTT2=
EXTT3=
PLAYORDER=
